<svg xmlns="http://www.w3.org/2000/svg" width="512" height="512" viewBox="0 0 512 512">
<defs>
  <radialGradient id="glow" cx="0.85" cy="0.0" r="0.9">
    <stop offset="0%" stop-color="#2a2e3a" stop-opacity="0.13"/>
    <stop offset="60%" stop-color="#2a2e3a" stop-opacity="0.13"/>
    <stop offset="100%" stop-color="#2a2e3a" stop-opacity="0"/>
  </radialGradient>
  <filter id="shadow" x="-20%" y="-20%" width="140%" height="140%">
    <feDropShadow dx="0" dy="12" stdDeviation="16" flood-color="#000000" flood-opacity="0.25"/>
  </filter>
</defs>
<g filter="url(#shadow)">
<rect x="32" y="32" width="448" height="448" rx="56" fill="#131521" stroke="#1e2133" stroke-width="2"/>
<rect x="32" y="32" width="448" height="448" rx="56" fill="url(#glow)"/>
</g>
<circle cx="136.0" cy="136.0" r="18" fill="#ffffff" opacity="0.06"/>
<circle cx="216.0" cy="136.0" r="18" fill="#ffffff" opacity="0.06"/>
<circle cx="296.0" cy="136.0" r="18" fill="#ffffff" opacity="0.06"/>
<circle cx="376.0" cy="136.0" r="18" fill="#f39bc0"/>
<circle cx="369.7" cy="129.7" r="6.3" fill="#ffffff" opacity="0.25"/>
<circle cx="136.0" cy="216.0" r="18" fill="#ffffff" opacity="0.06"/>
<circle cx="216.0" cy="216.0" r="18" fill="#ffffff" opacity="0.06"/>
<circle cx="296.0" cy="216.0" r="18" fill="#ffc789"/>
<circle cx="289.7" cy="209.7" r="6.3" fill="#ffffff" opacity="0.25"/>
<circle cx="376.0" cy="216.0" r="18" fill="#f39bc0"/>
<circle cx="369.7" cy="209.7" r="6.3" fill="#ffffff" opacity="0.25"/>
<circle cx="136.0" cy="296.0" r="18" fill="#ffffff" opacity="0.06"/>
<circle cx="216.0" cy="296.0" r="18" fill="#92e39a"/>
<circle cx="209.7" cy="289.7" r="6.3" fill="#ffffff" opacity="0.25"/>
<circle cx="296.0" cy="296.0" r="18" fill="#ffc789"/>
<circle cx="289.7" cy="289.7" r="6.3" fill="#ffffff" opacity="0.25"/>
<circle cx="376.0" cy="296.0" r="18" fill="#f39bc0"/>
<circle cx="369.7" cy="289.7" r="6.3" fill="#ffffff" opacity="0.25"/>
<circle cx="136.0" cy="376.0" r="18" fill="#7bb7ff"/>
<circle cx="129.7" cy="369.7" r="6.3" fill="#ffffff" opacity="0.25"/>
<circle cx="216.0" cy="376.0" r="18" fill="#92e39a"/>
<circle cx="209.7" cy="369.7" r="6.3" fill="#ffffff" opacity="0.25"/>
<circle cx="296.0" cy="376.0" r="18" fill="#ffc789"/>
<circle cx="289.7" cy="369.7" r="6.3" fill="#ffffff" opacity="0.25"/>
<circle cx="376.0" cy="376.0" r="18" fill="#f39bc0"/>
<circle cx="369.7" cy="369.7" r="6.3" fill="#ffffff" opacity="0.25"/>
</svg>