<?xml version="1.0" standalone="no"?>
<!DOCTYPE svg PUBLIC "-//W3C//DTD SVG 20010904//EN"
 "http://www.w3.org/TR/2001/REC-SVG-20010904/DTD/svg10.dtd">
<svg version="1.0" xmlns="http://www.w3.org/2000/svg"
 width="317.000000pt" height="317.000000pt" viewBox="0 0 317.000000 317.000000"
 preserveAspectRatio="xMidYMid meet">

<g transform="translate(0.000000,317.000000) scale(0.100000,-0.100000)"
fill="#000000" stroke="none">
<path d="M1465 3001 c-64 -23 -84 -33 -170 -91 -38 -25 -82 -52 -97 -60 -47
-23 -135 -108 -177 -170 -57 -86 -98 -201 -137 -383 -19 -87 -57 -224 -84
-305 -27 -81 -71 -223 -99 -317 -78 -265 -106 -347 -169 -483 -33 -70 -67
-153 -76 -185 l-18 -57 -84 -42 c-47 -23 -87 -45 -90 -50 -14 -23 9 -16 80 21
84 45 96 48 96 25 0 -23 64 -84 89 -84 17 0 21 6 22 38 1 28 4 19 14 -35 17
-95 62 -190 115 -243 47 -47 155 -101 247 -125 38 -10 63 -22 72 -37 27 -42
116 -123 155 -142 64 -30 104 -31 181 -1 88 33 187 94 342 212 104 78 124 90
132 76 7 -14 14 -8 40 33 35 56 40 47 12 -25 l-19 -50 57 -7 c64 -8 181 9 253
36 26 10 92 47 147 84 55 36 111 71 124 77 15 7 35 34 52 70 16 32 30 57 32
55 2 -2 -1 -22 -6 -45 l-9 -42 41 34 c28 22 47 49 57 78 8 24 16 46 17 48 5 8
116 -73 175 -128 58 -53 84 -50 31 4 -31 32 -183 145 -194 145 -4 0 -9 35 -11
78 -3 67 -9 89 -50 172 -39 81 -74 188 -64 198 2 1 13 -14 25 -34 12 -20 23
-35 24 -33 1 2 0 92 -4 199 -7 212 -19 282 -69 379 -33 67 -70 187 -100 331
-51 241 -70 285 -183 414 -166 190 -271 296 -310 315 -67 32 -231 71 -300 71
-34 -1 -85 -9 -112 -19z m185 -237 c19 -7 60 -20 91 -28 77 -21 145 -84 194
-178 21 -39 54 -90 74 -112 41 -47 70 -93 50 -80 -8 5 -11 3 -7 -7 3 -8 11
-40 18 -72 6 -32 18 -70 26 -85 18 -34 18 -84 0 -203 -8 -52 -17 -137 -21
-189 -10 -127 -57 -269 -115 -347 -24 -32 -84 -98 -134 -147 -89 -87 -80 -92
18 -12 l49 41 -50 -70 c-107 -151 -173 -291 -173 -367 0 -24 10 -86 21 -138
35 -166 40 -147 -48 -216 -170 -132 -328 -224 -386 -224 -33 0 -58 12 -109 53
-43 34 -47 47 -18 47 16 0 20 7 20 34 0 49 23 106 73 184 92 140 89 236 -14
429 -21 41 -48 104 -59 141 -24 79 -49 212 -41 212 3 0 19 -18 34 -40 26 -36
91 -95 127 -115 8 -5 -11 19 -43 51 -66 68 -104 122 -149 208 -26 52 -32 78
-44 203 -21 222 -21 391 0 431 10 19 15 40 12 48 -3 8 -1 14 4 14 6 0 10 7 10
15 0 8 11 39 24 70 14 30 23 55 20 55 -3 0 20 36 50 79 31 43 56 83 56 89 0 5
21 34 48 63 26 29 40 49 32 44 -21 -13 70 73 102 96 34 25 142 49 188 42 19
-3 51 -12 70 -19z m98 -2122 c-13 -15 -14 -15 -21 28 l-7 35 19 -25 c14 -18
17 -28 9 -38z m32 -36 c0 -16 -174 -153 -278 -220 -217 -141 -305 -144 -432
-16 l-55 55 29 3 c24 3 36 -4 60 -32 47 -53 103 -86 148 -86 76 0 242 96 428
248 82 67 100 75 100 48z"/>
<path d="M1330 1293 c0 -18 56 -76 93 -95 33 -18 59 -23 123 -23 73 0 85 3
122 28 22 16 43 36 47 45 5 14 4 14 -12 0 -40 -35 -88 -52 -153 -52 -84 -1
-129 16 -179 65 -23 21 -41 36 -41 32z"/>
</g>
</svg>
